# xmcd
#
# Track frame offsets:
#	150
#	11606
#	27619
#	39536
#	53980
#	66783
#	82431
#	98113
#	108156
#	122119
#	136730
#	157007
#	170415
#
# Disc length: 2566 seconds
# Revision: 1
# Processed by: cddbd v1.5.2PL0 Copyright (c) Steve Scherf et al.
# Submitted via: dBpowerAMP V12.0
#
DISCID=b10a040d
DTITLE=Caitlin - Sleep My Baby
DYEAR=2004
DGENRE=Country
TTITLE0=Sleep My Baby
TTITLE1=The Maid Of Marble Hill
TTITLE2=The Key In The Mailbox
TTITLE3=Coat Of Many Colours
TTITLE4=Fool Around With Me
TTITLE5=The Homes Of Donegal
TTITLE6=My Connemara Marble Ring
TTITLE7=I'm Loving The Bottle Tonight
TTITLE8=Billie Dale
TTITLE9=Flower Of Scotland
TTITLE10=Roads Of Kildare
TTITLE11=Old Love Letters
TTITLE12=Raglan Road
EXTD=
EXTT0=
EXTT1=
EXTT2=
EXTT3=
EXTT4=
EXTT5=
EXTT6=
EXTT7=
EXTT8=
EXTT9=
EXTT10=
EXTT11=
EXTT12=
PLAYORDER=
